<svg xmlns="http://www.w3.org/2000/svg" xmlns:xlink="http://www.w3.org/1999/xlink" width="650" zoomAndPan="magnify" viewBox="0 0 487.5 195.000001" height="260" preserveAspectRatio="xMidYMid meet" version="1.0"><defs><g/><clipPath id="ea1e23097c"><path d="M 81 84 L 191 84 L 191 190 L 81 190 Z M 81 84 " clip-rule="nonzero"/></clipPath><clipPath id="ea46035a0a"><path d="M -62.464844 95.515625 L 77.261719 -44.210938 L 241.367188 119.894531 L 101.640625 259.621094 Z M -62.464844 95.515625 " clip-rule="nonzero"/></clipPath><clipPath id="0ffa027b82"><path d="M -62.464844 95.515625 L 77.261719 -44.210938 L 241.367188 119.894531 L 101.640625 259.621094 Z M -62.464844 95.515625 " clip-rule="nonzero"/></clipPath><clipPath id="98cf502cf2"><path d="M 3 1 L 124 1 L 124 190 L 3 190 Z M 3 1 " clip-rule="nonzero"/></clipPath><clipPath id="ad9ad027f6"><path d="M -62.464844 95.515625 L 77.261719 -44.210938 L 241.367188 119.894531 L 101.640625 259.621094 Z M -62.464844 95.515625 " clip-rule="nonzero"/></clipPath><clipPath id="f8e486b777"><path d="M -62.464844 95.515625 L 77.261719 -44.210938 L 241.367188 119.894531 L 101.640625 259.621094 Z M -62.464844 95.515625 " clip-rule="nonzero"/></clipPath></defs><g fill="#11142d" fill-opacity="1"><g transform="translate(191.505681, 137.570341)"><g><path d="M 34.21875 1.28125 C 28.445312 1.28125 23.332031 -0.0507812 18.875 -2.71875 C 14.414062 -5.394531 10.9375 -9.03125 8.4375 -13.625 C 5.945312 -18.226562 4.703125 -23.382812 4.703125 -29.09375 C 4.703125 -34.9375 5.96875 -40.101562 8.5 -44.59375 C 11.03125 -49.082031 14.429688 -52.628906 18.703125 -55.234375 C 22.984375 -57.835938 27.832031 -59.140625 33.25 -59.140625 C 37.601562 -59.140625 41.488281 -58.390625 44.90625 -56.890625 C 48.332031 -55.390625 51.222656 -53.335938 53.578125 -50.734375 C 55.929688 -48.140625 57.726562 -45.164062 58.96875 -41.8125 C 60.21875 -38.457031 60.84375 -34.894531 60.84375 -31.125 C 60.84375 -30.195312 60.804688 -29.234375 60.734375 -28.234375 C 60.671875 -27.234375 60.53125 -26.304688 60.3125 -25.453125 L 14.21875 -25.453125 L 14.21875 -35.078125 L 53.46875 -35.078125 L 47.6875 -30.6875 C 48.40625 -34.1875 48.175781 -37.304688 47 -40.046875 C 45.820312 -42.796875 44.035156 -44.972656 41.640625 -46.578125 C 39.253906 -48.179688 36.457031 -48.984375 33.25 -48.984375 C 30.050781 -48.984375 27.203125 -48.179688 24.703125 -46.578125 C 22.203125 -44.972656 20.273438 -42.691406 18.921875 -39.734375 C 17.566406 -36.773438 17.035156 -33.191406 17.328125 -28.984375 C 16.972656 -25.054688 17.523438 -21.628906 18.984375 -18.703125 C 20.441406 -15.785156 22.503906 -13.503906 25.171875 -11.859375 C 27.847656 -10.222656 30.898438 -9.40625 34.328125 -9.40625 C 37.816406 -9.40625 40.789062 -10.1875 43.25 -11.75 C 45.71875 -13.320312 47.660156 -15.359375 49.078125 -17.859375 L 58.921875 -13.046875 C 57.785156 -10.335938 56.019531 -7.894531 53.625 -5.71875 C 51.238281 -3.539062 48.382812 -1.828125 45.0625 -0.578125 C 41.75 0.660156 38.132812 1.28125 34.21875 1.28125 Z M 34.21875 1.28125 "/></g></g></g><g fill="#11142d" fill-opacity="1"><g transform="translate(257.053639, 137.570341)"><g><path d="M 28.453125 1.28125 C 22.523438 1.28125 17.332031 -0.175781 12.875 -3.09375 C 8.425781 -6.019531 5.3125 -9.941406 3.53125 -14.859375 L 12.828125 -19.25 C 14.398438 -15.96875 16.554688 -13.363281 19.296875 -11.4375 C 22.046875 -9.519531 25.097656 -8.5625 28.453125 -8.5625 C 31.296875 -8.5625 33.609375 -9.203125 35.390625 -10.484375 C 37.171875 -11.765625 38.0625 -13.507812 38.0625 -15.71875 C 38.0625 -17.144531 37.671875 -18.300781 36.890625 -19.1875 C 36.109375 -20.082031 35.128906 -20.816406 33.953125 -21.390625 C 32.773438 -21.960938 31.582031 -22.390625 30.375 -22.671875 L 21.28125 -25.234375 C 16.289062 -26.660156 12.566406 -28.816406 10.109375 -31.703125 C 7.648438 -34.585938 6.421875 -37.957031 6.421875 -41.8125 C 6.421875 -45.300781 7.3125 -48.347656 9.09375 -50.953125 C 10.875 -53.554688 13.332031 -55.570312 16.46875 -57 C 19.601562 -58.425781 23.132812 -59.140625 27.0625 -59.140625 C 32.332031 -59.140625 37.035156 -57.835938 41.171875 -55.234375 C 45.304688 -52.628906 48.226562 -49.007812 49.9375 -44.375 L 40.640625 -40 C 39.492188 -42.78125 37.691406 -44.988281 35.234375 -46.625 C 32.773438 -48.257812 30.015625 -49.078125 26.953125 -49.078125 C 24.304688 -49.078125 22.195312 -48.453125 20.625 -47.203125 C 19.0625 -45.960938 18.28125 -44.34375 18.28125 -42.34375 C 18.28125 -40.988281 18.632812 -39.863281 19.34375 -38.96875 C 20.0625 -38.082031 20.988281 -37.367188 22.125 -36.828125 C 23.269531 -36.296875 24.453125 -35.851562 25.671875 -35.5 L 35.078125 -32.71875 C 39.847656 -31.363281 43.515625 -29.242188 46.078125 -26.359375 C 48.648438 -23.472656 49.9375 -20.035156 49.9375 -16.046875 C 49.9375 -12.617188 49.023438 -9.601562 47.203125 -7 C 45.390625 -4.394531 42.878906 -2.363281 39.671875 -0.90625 C 36.460938 0.550781 32.722656 1.28125 28.453125 1.28125 Z M 28.453125 1.28125 "/></g></g></g><g fill="#11142d" fill-opacity="1"><g transform="translate(311.801686, 137.570341)"><g><path d="M 32.078125 0.640625 C 26.015625 0.640625 21.304688 -1.066406 17.953125 -4.484375 C 14.609375 -7.910156 12.9375 -12.722656 12.9375 -18.921875 L 12.9375 -46.953125 L 2.78125 -46.953125 L 2.78125 -57.859375 L 4.390625 -57.859375 C 7.097656 -57.859375 9.195312 -58.640625 10.6875 -60.203125 C 12.1875 -61.773438 12.9375 -63.914062 12.9375 -66.625 L 12.9375 -71.109375 L 25.015625 -71.109375 L 25.015625 -57.859375 L 38.171875 -57.859375 L 38.171875 -46.953125 L 25.015625 -46.953125 L 25.015625 -19.46875 C 25.015625 -17.46875 25.335938 -15.769531 25.984375 -14.375 C 26.628906 -12.988281 27.660156 -11.921875 29.078125 -11.171875 C 30.503906 -10.421875 32.359375 -10.046875 34.640625 -10.046875 C 35.210938 -10.046875 35.851562 -10.082031 36.5625 -10.15625 C 37.28125 -10.226562 37.960938 -10.300781 38.609375 -10.375 L 38.609375 0 C 37.609375 0.144531 36.5 0.285156 35.28125 0.421875 C 34.070312 0.566406 33.003906 0.640625 32.078125 0.640625 Z M 32.078125 0.640625 "/></g></g></g><g fill="#11142d" fill-opacity="1"><g transform="translate(355.108255, 137.570341)"><g><path d="M 34.21875 1.28125 C 28.445312 1.28125 23.332031 -0.0507812 18.875 -2.71875 C 14.414062 -5.394531 10.9375 -9.03125 8.4375 -13.625 C 5.945312 -18.226562 4.703125 -23.382812 4.703125 -29.09375 C 4.703125 -34.9375 5.96875 -40.101562 8.5 -44.59375 C 11.03125 -49.082031 14.429688 -52.628906 18.703125 -55.234375 C 22.984375 -57.835938 27.832031 -59.140625 33.25 -59.140625 C 37.601562 -59.140625 41.488281 -58.390625 44.90625 -56.890625 C 48.332031 -55.390625 51.222656 -53.335938 53.578125 -50.734375 C 55.929688 -48.140625 57.726562 -45.164062 58.96875 -41.8125 C 60.21875 -38.457031 60.84375 -34.894531 60.84375 -31.125 C 60.84375 -30.195312 60.804688 -29.234375 60.734375 -28.234375 C 60.671875 -27.234375 60.53125 -26.304688 60.3125 -25.453125 L 14.21875 -25.453125 L 14.21875 -35.078125 L 53.46875 -35.078125 L 47.6875 -30.6875 C 48.40625 -34.1875 48.175781 -37.304688 47 -40.046875 C 45.820312 -42.796875 44.035156 -44.972656 41.640625 -46.578125 C 39.253906 -48.179688 36.457031 -48.984375 33.25 -48.984375 C 30.050781 -48.984375 27.203125 -48.179688 24.703125 -46.578125 C 22.203125 -44.972656 20.273438 -42.691406 18.921875 -39.734375 C 17.566406 -36.773438 17.035156 -33.191406 17.328125 -28.984375 C 16.972656 -25.054688 17.523438 -21.628906 18.984375 -18.703125 C 20.441406 -15.785156 22.503906 -13.503906 25.171875 -11.859375 C 27.847656 -10.222656 30.898438 -9.40625 34.328125 -9.40625 C 37.816406 -9.40625 40.789062 -10.1875 43.25 -11.75 C 45.71875 -13.320312 47.660156 -15.359375 49.078125 -17.859375 L 58.921875 -13.046875 C 57.785156 -10.335938 56.019531 -7.894531 53.625 -5.71875 C 51.238281 -3.539062 48.382812 -1.828125 45.0625 -0.578125 C 41.75 0.660156 38.132812 1.28125 34.21875 1.28125 Z M 34.21875 1.28125 "/></g></g></g><g fill="#11142d" fill-opacity="1"><g transform="translate(420.656213, 137.570341)"><g><path d="M 34.546875 1.28125 C 28.765625 1.28125 23.644531 -0.0507812 19.1875 -2.71875 C 14.738281 -5.394531 11.210938 -9.015625 8.609375 -13.578125 C 6.003906 -18.140625 4.703125 -23.3125 4.703125 -29.09375 C 4.703125 -34.789062 5.984375 -39.921875 8.546875 -44.484375 C 11.117188 -49.046875 14.648438 -52.628906 19.140625 -55.234375 C 23.628906 -57.835938 28.765625 -59.140625 34.546875 -59.140625 C 38.460938 -59.140625 42.128906 -58.441406 45.546875 -57.046875 C 48.972656 -55.660156 51.953125 -53.753906 54.484375 -51.328125 C 57.015625 -48.898438 58.882812 -46.082031 60.09375 -42.875 L 49.515625 -37.96875 C 48.296875 -40.957031 46.347656 -43.359375 43.671875 -45.171875 C 41.003906 -46.992188 37.960938 -47.90625 34.546875 -47.90625 C 31.265625 -47.90625 28.320312 -47.101562 25.71875 -45.5 C 23.113281 -43.894531 21.0625 -41.648438 19.5625 -38.765625 C 18.070312 -35.878906 17.328125 -32.617188 17.328125 -28.984375 C 17.328125 -25.347656 18.070312 -22.082031 19.5625 -19.1875 C 21.0625 -16.300781 23.113281 -14.035156 25.71875 -12.390625 C 28.320312 -10.753906 31.265625 -9.9375 34.546875 -9.9375 C 38.035156 -9.9375 41.082031 -10.847656 43.6875 -12.671875 C 46.289062 -14.492188 48.234375 -16.9375 49.515625 -20 L 60.09375 -14.96875 C 58.957031 -11.90625 57.125 -9.144531 54.59375 -6.6875 C 52.0625 -4.226562 49.082031 -2.285156 45.65625 -0.859375 C 42.238281 0.566406 38.535156 1.28125 34.546875 1.28125 Z M 34.546875 1.28125 "/></g></g></g><g clip-path="url(#ea1e23097c)"><g clip-path="url(#ea46035a0a)"><g clip-path="url(#0ffa027b82)"><path fill="#11142d" d="M 81.316406 115.457031 L 149.261719 115.457031 L 149.230469 189.101562 C 172.292969 189.101562 190.988281 170.40625 190.988281 147.34375 L 190.988281 84.347656 L 81.316406 84.316406 Z M 81.316406 115.457031 " fill-opacity="1" fill-rule="nonzero"/></g></g></g><g clip-path="url(#98cf502cf2)"><g clip-path="url(#ad9ad027f6)"><g clip-path="url(#f8e486b777)"><path fill="#11142d" d="M 121.152344 1.941406 L 65.324219 1.941406 C 31.121094 1.941406 3.4375 29.628906 3.4375 63.828125 L 3.4375 127.214844 C 3.4375 161.414062 31.121094 189.101562 65.324219 189.101562 L 121.152344 189.101562 C 122.652344 189.101562 123.824219 187.929688 123.824219 186.429688 L 123.824219 151.121094 C 123.824219 149.625 122.652344 148.453125 121.152344 148.453125 L 56.039062 148.484375 C 50.242188 148.484375 45.585938 143.828125 45.585938 138.027344 L 45.617188 54.871094 C 45.617188 49.074219 50.277344 44.414062 56.074219 44.414062 L 121.152344 44.414062 C 122.652344 44.414062 123.824219 43.242188 123.824219 41.746094 L 123.824219 4.546875 C 123.824219 3.113281 122.652344 1.941406 121.152344 1.941406 Z M 121.152344 1.941406 " fill-opacity="1" fill-rule="nonzero"/></g></g></g></svg>