<svg xmlns="http://www.w3.org/2000/svg" xmlns:xlink="http://www.w3.org/1999/xlink" width="650" zoomAndPan="magnify" viewBox="0 0 487.5 183.750001" height="245" preserveAspectRatio="xMidYMid meet" version="1.0"><defs><g/><clipPath id="90f6217d49"><path d="M 74 78 L 179 78 L 179 178 L 74 178 Z M 74 78 " clip-rule="nonzero"/></clipPath><clipPath id="d5f2e1e5bf"><path d="M -61.214844 89.425781 L 70.65625 -42.445312 L 225.832031 112.730469 L 93.960938 244.601562 Z M -61.214844 89.425781 " clip-rule="nonzero"/></clipPath><clipPath id="b2c42348e0"><path d="M -61.214844 89.425781 L 70.65625 -42.445312 L 225.832031 112.730469 L 93.960938 244.601562 Z M -61.214844 89.425781 " clip-rule="nonzero"/></clipPath><clipPath id="8070d00f5d"><path d="M 1 0 L 115 0 L 115 178 L 1 178 Z M 1 0 " clip-rule="nonzero"/></clipPath><clipPath id="c3e6e980e2"><path d="M -61.214844 89.425781 L 70.65625 -42.445312 L 225.832031 112.730469 L 93.960938 244.601562 Z M -61.214844 89.425781 " clip-rule="nonzero"/></clipPath><clipPath id="9347370aff"><path d="M -61.214844 89.425781 L 70.65625 -42.445312 L 225.832031 112.730469 L 93.960938 244.601562 Z M -61.214844 89.425781 " clip-rule="nonzero"/></clipPath></defs><g fill="#ffffff" fill-opacity="1"><g transform="translate(196.11805, 135.144101)"><g><path d="M 34.203125 1.28125 C 28.429688 1.28125 23.316406 -0.0507812 18.859375 -2.71875 C 14.410156 -5.394531 10.9375 -9.03125 8.4375 -13.625 C 5.945312 -18.21875 4.703125 -23.367188 4.703125 -29.078125 C 4.703125 -34.921875 5.96875 -40.085938 8.5 -44.578125 C 11.03125 -49.066406 14.429688 -52.609375 18.703125 -55.203125 C 22.984375 -57.804688 27.832031 -59.109375 33.25 -59.109375 C 37.59375 -59.109375 41.472656 -58.359375 44.890625 -56.859375 C 48.316406 -55.367188 51.203125 -53.320312 53.546875 -50.71875 C 55.898438 -48.113281 57.703125 -45.132812 58.953125 -41.78125 C 60.203125 -38.4375 60.828125 -34.878906 60.828125 -31.109375 C 60.828125 -30.179688 60.789062 -29.21875 60.71875 -28.21875 C 60.644531 -27.21875 60.5 -26.289062 60.28125 -25.4375 L 14.21875 -25.4375 L 14.21875 -35.0625 L 53.453125 -35.0625 L 47.671875 -30.671875 C 48.378906 -34.171875 48.144531 -37.289062 46.96875 -40.03125 C 45.800781 -42.769531 44.019531 -44.941406 41.625 -46.546875 C 39.238281 -48.148438 36.445312 -48.953125 33.25 -48.953125 C 30.039062 -48.953125 27.1875 -48.148438 24.6875 -46.546875 C 22.195312 -44.941406 20.273438 -42.660156 18.921875 -39.703125 C 17.566406 -36.753906 17.03125 -33.175781 17.3125 -28.96875 C 16.957031 -25.050781 17.507812 -21.628906 18.96875 -18.703125 C 20.4375 -15.785156 22.503906 -13.503906 25.171875 -11.859375 C 27.847656 -10.222656 30.894531 -9.40625 34.3125 -9.40625 C 37.800781 -9.40625 40.773438 -10.1875 43.234375 -11.75 C 45.691406 -13.320312 47.632812 -15.351562 49.0625 -17.84375 L 58.890625 -13.046875 C 57.753906 -10.335938 55.992188 -7.894531 53.609375 -5.71875 C 51.222656 -3.539062 48.367188 -1.828125 45.046875 -0.578125 C 41.734375 0.660156 38.117188 1.28125 34.203125 1.28125 Z M 34.203125 1.28125 "/></g></g></g><g fill="#ffffff" fill-opacity="1"><g transform="translate(261.645094, 135.144101)"><g><path d="M 28.4375 1.28125 C 22.519531 1.28125 17.332031 -0.175781 12.875 -3.09375 C 8.425781 -6.019531 5.3125 -9.941406 3.53125 -14.859375 L 12.828125 -19.234375 C 14.390625 -15.960938 16.539062 -13.363281 19.28125 -11.4375 C 22.03125 -9.507812 25.082031 -8.546875 28.4375 -8.546875 C 31.28125 -8.546875 33.59375 -9.1875 35.375 -10.46875 C 37.15625 -11.757812 38.046875 -13.507812 38.046875 -15.71875 C 38.046875 -17.132812 37.65625 -18.285156 36.875 -19.171875 C 36.09375 -20.066406 35.113281 -20.800781 33.9375 -21.375 C 32.757812 -21.945312 31.566406 -22.375 30.359375 -22.65625 L 21.265625 -25.21875 C 16.273438 -26.644531 12.550781 -28.800781 10.09375 -31.6875 C 7.632812 -34.570312 6.40625 -37.941406 6.40625 -41.796875 C 6.40625 -45.285156 7.296875 -48.328125 9.078125 -50.921875 C 10.867188 -53.523438 13.332031 -55.539062 16.46875 -56.96875 C 19.601562 -58.394531 23.128906 -59.109375 27.046875 -59.109375 C 32.316406 -59.109375 37.019531 -57.804688 41.15625 -55.203125 C 45.289062 -52.609375 48.210938 -48.992188 49.921875 -44.359375 L 40.625 -39.984375 C 39.476562 -42.753906 37.675781 -44.957031 35.21875 -46.59375 C 32.757812 -48.238281 30 -49.0625 26.9375 -49.0625 C 24.300781 -49.0625 22.195312 -48.4375 20.625 -47.1875 C 19.0625 -45.945312 18.28125 -44.328125 18.28125 -42.328125 C 18.28125 -40.972656 18.632812 -39.847656 19.34375 -38.953125 C 20.0625 -38.066406 20.988281 -37.351562 22.125 -36.8125 C 23.269531 -36.28125 24.445312 -35.835938 25.65625 -35.484375 L 35.0625 -32.703125 C 39.832031 -31.347656 43.5 -29.226562 46.0625 -26.34375 C 48.632812 -23.457031 49.921875 -20.019531 49.921875 -16.03125 C 49.921875 -12.613281 49.007812 -9.601562 47.1875 -7 C 45.375 -4.394531 42.863281 -2.363281 39.65625 -0.90625 C 36.445312 0.550781 32.707031 1.28125 28.4375 1.28125 Z M 28.4375 1.28125 "/></g></g></g><g fill="#ffffff" fill-opacity="1"><g transform="translate(316.375672, 135.144101)"><g><path d="M 32.0625 0.640625 C 26.007812 0.640625 21.304688 -1.066406 17.953125 -4.484375 C 14.609375 -7.910156 12.9375 -12.722656 12.9375 -18.921875 L 12.9375 -46.921875 L 2.78125 -46.921875 L 2.78125 -57.828125 L 4.375 -57.828125 C 7.082031 -57.828125 9.1875 -58.609375 10.6875 -60.171875 C 12.1875 -61.742188 12.9375 -63.882812 12.9375 -66.59375 L 12.9375 -71.078125 L 25.015625 -71.078125 L 25.015625 -57.828125 L 38.15625 -57.828125 L 38.15625 -46.921875 L 25.015625 -46.921875 L 25.015625 -19.453125 C 25.015625 -17.460938 25.332031 -15.769531 25.96875 -14.375 C 26.613281 -12.988281 27.648438 -11.921875 29.078125 -11.171875 C 30.503906 -10.421875 32.351562 -10.046875 34.625 -10.046875 C 35.195312 -10.046875 35.835938 -10.082031 36.546875 -10.15625 C 37.265625 -10.226562 37.945312 -10.300781 38.59375 -10.375 L 38.59375 0 C 37.59375 0.144531 36.484375 0.285156 35.265625 0.421875 C 34.054688 0.566406 32.988281 0.640625 32.0625 0.640625 Z M 32.0625 0.640625 "/></g></g></g><g fill="#ffffff" fill-opacity="1"><g transform="translate(359.668424, 135.144101)"><g><path d="M 34.203125 1.28125 C 28.429688 1.28125 23.316406 -0.0507812 18.859375 -2.71875 C 14.410156 -5.394531 10.9375 -9.03125 8.4375 -13.625 C 5.945312 -18.21875 4.703125 -23.367188 4.703125 -29.078125 C 4.703125 -34.921875 5.96875 -40.085938 8.5 -44.578125 C 11.03125 -49.066406 14.429688 -52.609375 18.703125 -55.203125 C 22.984375 -57.804688 27.832031 -59.109375 33.25 -59.109375 C 37.59375 -59.109375 41.472656 -58.359375 44.890625 -56.859375 C 48.316406 -55.367188 51.203125 -53.320312 53.546875 -50.71875 C 55.898438 -48.113281 57.703125 -45.132812 58.953125 -41.78125 C 60.203125 -38.4375 60.828125 -34.878906 60.828125 -31.109375 C 60.828125 -30.179688 60.789062 -29.21875 60.71875 -28.21875 C 60.644531 -27.21875 60.5 -26.289062 60.28125 -25.4375 L 14.21875 -25.4375 L 14.21875 -35.0625 L 53.453125 -35.0625 L 47.671875 -30.671875 C 48.378906 -34.171875 48.144531 -37.289062 46.96875 -40.03125 C 45.800781 -42.769531 44.019531 -44.941406 41.625 -46.546875 C 39.238281 -48.148438 36.445312 -48.953125 33.25 -48.953125 C 30.039062 -48.953125 27.1875 -48.148438 24.6875 -46.546875 C 22.195312 -44.941406 20.273438 -42.660156 18.921875 -39.703125 C 17.566406 -36.753906 17.03125 -33.175781 17.3125 -28.96875 C 16.957031 -25.050781 17.507812 -21.628906 18.96875 -18.703125 C 20.4375 -15.785156 22.503906 -13.503906 25.171875 -11.859375 C 27.847656 -10.222656 30.894531 -9.40625 34.3125 -9.40625 C 37.800781 -9.40625 40.773438 -10.1875 43.234375 -11.75 C 45.691406 -13.320312 47.632812 -15.351562 49.0625 -17.84375 L 58.890625 -13.046875 C 57.753906 -10.335938 55.992188 -7.894531 53.609375 -5.71875 C 51.222656 -3.539062 48.367188 -1.828125 45.046875 -0.578125 C 41.734375 0.660156 38.117188 1.28125 34.203125 1.28125 Z M 34.203125 1.28125 "/></g></g></g><g fill="#ffffff" fill-opacity="1"><g transform="translate(425.195467, 135.144101)"><g><path d="M 34.53125 1.28125 C 28.757812 1.28125 23.644531 -0.0507812 19.1875 -2.71875 C 14.726562 -5.394531 11.195312 -9.015625 8.59375 -13.578125 C 6 -18.140625 4.703125 -23.304688 4.703125 -29.078125 C 4.703125 -34.773438 5.984375 -39.90625 8.546875 -44.46875 C 11.117188 -49.03125 14.648438 -52.609375 19.140625 -55.203125 C 23.628906 -57.804688 28.757812 -59.109375 34.53125 -59.109375 C 38.445312 -59.109375 42.113281 -58.410156 45.53125 -57.015625 C 48.957031 -55.628906 51.929688 -53.722656 54.453125 -51.296875 C 56.984375 -48.878906 58.859375 -46.066406 60.078125 -42.859375 L 49.484375 -37.953125 C 48.273438 -40.941406 46.332031 -43.34375 43.65625 -45.15625 C 40.988281 -46.976562 37.945312 -47.890625 34.53125 -47.890625 C 31.25 -47.890625 28.304688 -47.085938 25.703125 -45.484375 C 23.109375 -43.878906 21.0625 -41.632812 19.5625 -38.75 C 18.0625 -35.863281 17.3125 -32.601562 17.3125 -28.96875 C 17.3125 -25.332031 18.0625 -22.070312 19.5625 -19.1875 C 21.0625 -16.300781 23.109375 -14.035156 25.703125 -12.390625 C 28.304688 -10.753906 31.25 -9.9375 34.53125 -9.9375 C 38.019531 -9.9375 41.0625 -10.84375 43.65625 -12.65625 C 46.257812 -14.476562 48.203125 -16.921875 49.484375 -19.984375 L 60.078125 -14.96875 C 58.929688 -11.90625 57.09375 -9.144531 54.5625 -6.6875 C 52.03125 -4.226562 49.054688 -2.285156 45.640625 -0.859375 C 42.222656 0.566406 38.519531 1.28125 34.53125 1.28125 Z M 34.53125 1.28125 "/></g></g></g><g clip-path="url(#90f6217d49)"><g clip-path="url(#d5f2e1e5bf)"><g clip-path="url(#b2c42348e0)"><path fill="#ffffff" d="M 74.785156 108.285156 L 139.054688 108.285156 L 139.023438 177.949219 C 160.835938 177.949219 178.523438 160.261719 178.523438 138.449219 L 178.523438 78.863281 L 74.785156 78.832031 Z M 74.785156 108.285156 " fill-opacity="1" fill-rule="nonzero"/></g></g></g><g clip-path="url(#8070d00f5d)"><g clip-path="url(#c3e6e980e2)"><g clip-path="url(#9347370aff)"><path fill="#ffffff" d="M 112.464844 0.914062 L 59.65625 0.914062 C 27.304688 0.914062 1.117188 27.101562 1.117188 59.453125 L 1.117188 119.410156 C 1.117188 151.757812 27.304688 177.949219 59.65625 177.949219 L 112.464844 177.949219 C 113.882812 177.949219 114.992188 176.839844 114.992188 175.421875 L 114.992188 142.023438 C 114.992188 140.605469 113.882812 139.496094 112.464844 139.496094 L 50.875 139.527344 C 45.390625 139.527344 40.984375 135.121094 40.984375 129.636719 L 41.015625 50.980469 C 41.015625 45.496094 45.421875 41.089844 50.90625 41.089844 L 112.464844 41.089844 C 113.882812 41.089844 114.992188 39.980469 114.992188 38.5625 L 114.992188 3.378906 C 114.992188 2.019531 113.882812 0.914062 112.464844 0.914062 Z M 112.464844 0.914062 " fill-opacity="1" fill-rule="nonzero"/></g></g></g></svg>