<svg xmlns="http://www.w3.org/2000/svg" xmlns:xlink="http://www.w3.org/1999/xlink" width="500" zoomAndPan="magnify" viewBox="0 0 375 374.999991" height="500" preserveAspectRatio="xMidYMid meet" version="1.0"><defs><clipPath id="9d6e64586f"><path d="M 156 164 L 375 164 L 375 374 L 156 374 Z M 156 164 " clip-rule="nonzero"/></clipPath><clipPath id="60485bc87c"><path d="M -130.792969 187.011719 L 147.632812 -91.410156 L 475.375 236.332031 L 196.953125 514.757812 Z M -130.792969 187.011719 " clip-rule="nonzero"/></clipPath><clipPath id="b4ca82e0f8"><path d="M -130.792969 187.011719 L 147.632812 -91.410156 L 475.375 236.332031 L 196.953125 514.757812 Z M -130.792969 187.011719 " clip-rule="nonzero"/></clipPath><clipPath id="481f70a06a"><path d="M 0 0 L 242 0 L 242 374 L 0 374 Z M 0 0 " clip-rule="nonzero"/></clipPath><clipPath id="3b96496662"><path d="M -130.792969 187.011719 L 147.632812 -91.410156 L 475.375 236.332031 L 196.953125 514.757812 Z M -130.792969 187.011719 " clip-rule="nonzero"/></clipPath><clipPath id="674c3e6226"><path d="M -130.792969 187.011719 L 147.632812 -91.410156 L 475.375 236.332031 L 196.953125 514.757812 Z M -130.792969 187.011719 " clip-rule="nonzero"/></clipPath></defs><g clip-path="url(#9d6e64586f)"><g clip-path="url(#60485bc87c)"><g clip-path="url(#b4ca82e0f8)"><path fill="#ffffff" d="M 156.359375 226.835938 L 292.054688 226.835938 L 291.992188 373.917969 C 338.046875 373.917969 375.386719 336.578125 375.386719 290.523438 L 375.386719 164.710938 L 156.359375 164.648438 Z M 156.359375 226.835938 " fill-opacity="1" fill-rule="nonzero"/></g></g></g><g clip-path="url(#481f70a06a)"><g clip-path="url(#3b96496662)"><g clip-path="url(#674c3e6226)"><path fill="#ffffff" d="M 235.917969 0.132812 L 124.417969 0.132812 C 56.113281 0.132812 0.820312 55.425781 0.820312 123.730469 L 0.820312 250.320312 C 0.820312 318.625 56.113281 373.917969 124.417969 373.917969 L 235.917969 373.917969 C 238.910156 373.917969 241.25 371.578125 241.25 368.585938 L 241.25 298.066406 C 241.25 295.074219 238.910156 292.734375 235.917969 292.734375 L 105.878906 292.800781 C 94.300781 292.800781 84.996094 283.496094 84.996094 271.917969 L 85.0625 105.839844 C 85.0625 94.261719 94.363281 84.960938 105.945312 84.960938 L 235.917969 84.960938 C 238.910156 84.960938 241.25 82.617188 241.25 79.625 L 241.25 5.335938 C 241.25 2.472656 238.910156 0.132812 235.917969 0.132812 Z M 235.917969 0.132812 " fill-opacity="1" fill-rule="nonzero"/></g></g></g></svg>