<svg xmlns="http://www.w3.org/2000/svg" xmlns:xlink="http://www.w3.org/1999/xlink" width="500" zoomAndPan="magnify" viewBox="0 0 375 374.999991" height="500" preserveAspectRatio="xMidYMid meet" version="1.0"><defs><g/><clipPath id="bb485c3616"><path d="M 30.445312 0 L 168 0 L 168 255 L 30.445312 255 Z M 30.445312 0 " clip-rule="nonzero"/></clipPath><clipPath id="f7342b79c4"><path d="M 98 0 L 344.695312 0 L 344.695312 291.75 L 98 291.75 Z M 98 0 " clip-rule="nonzero"/></clipPath></defs><g clip-path="url(#bb485c3616)"><path fill="#000000" d="M 79.953125 145.667969 C 79.953125 95.441406 118.253906 54.21875 167.777344 49.484375 L 167.777344 0.109375 C 91.140625 4.832031 30.445312 68.371094 30.445312 145.667969 C 30.445312 180.019531 42.5 211.371094 62.292969 236.703125 C 67.46875 243.148438 73.054688 249.164062 79.953125 254.742188 Z M 79.953125 145.667969 " fill-opacity="1" fill-rule="evenodd"/></g><g clip-path="url(#f7342b79c4)"><path fill="#000000" d="M 176.804688 242.722656 C 144.515625 242.722656 116.109375 227.257812 98.464844 202.777344 L 98.464844 268.90625 C 121.285156 283.5 147.957031 291.667969 176.804688 291.667969 C 204.789062 291.667969 231.046875 283.945312 253.429688 269.761719 L 275.378906 291.667969 L 344.695312 291.667969 L 290.453125 237.558594 C 294.757812 231.980469 299.066406 226.40625 302.507812 220.816406 C 315.417969 198.921875 323.167969 173.148438 323.167969 145.667969 C 323.167969 68.371094 262.46875 4.832031 186.273438 0.109375 L 186.273438 49.484375 C 235.355469 54.21875 274.101562 95.441406 274.101562 145.667969 C 274.101562 159.410156 271.085938 172.722656 265.910156 184.316406 C 262.898438 190.757812 259.457031 196.777344 255.589844 202.351562 C 245.679688 216.09375 232.769531 226.832031 217.269531 233.703125 C 204.789062 239.707031 191.449219 242.722656 176.804688 242.722656 Z M 176.804688 242.722656 " fill-opacity="1" fill-rule="evenodd"/></g><g fill="#000000" fill-opacity="1"><g transform="translate(14.039348, 338.506795)"><g><path d="M 25.25 -3.03125 L 26.484375 -1.5625 C 26.765625 -1.226562 26.742188 -0.921875 26.421875 -0.640625 L 23.453125 1.8125 C 23.109375 2.101562 22.796875 2.070312 22.515625 1.71875 L 20.84375 -0.265625 C 20.007812 0.0351562 19.125 0.265625 18.1875 0.421875 C 17.257812 0.585938 16.28125 0.671875 15.25 0.671875 C 13.226562 0.671875 11.382812 0.363281 9.71875 -0.25 C 8.050781 -0.863281 6.625 -1.742188 5.4375 -2.890625 C 4.25 -4.046875 3.332031 -5.429688 2.6875 -7.046875 C 2.039062 -8.671875 1.71875 -10.488281 1.71875 -12.5 C 1.71875 -14.5 2.039062 -16.304688 2.6875 -17.921875 C 3.332031 -19.546875 4.25 -20.929688 5.4375 -22.078125 C 6.625 -23.234375 8.050781 -24.117188 9.71875 -24.734375 C 11.382812 -25.347656 13.226562 -25.65625 15.25 -25.65625 C 17.289062 -25.65625 19.144531 -25.347656 20.8125 -24.734375 C 22.476562 -24.117188 23.910156 -23.234375 25.109375 -22.078125 C 26.304688 -20.929688 27.226562 -19.546875 27.875 -17.921875 C 28.519531 -16.304688 28.84375 -14.5 28.84375 -12.5 C 28.84375 -10.53125 28.53125 -8.742188 27.90625 -7.140625 C 27.28125 -5.546875 26.394531 -4.175781 25.25 -3.03125 Z M 15.25 -5.328125 C 15.46875 -5.328125 15.675781 -5.335938 15.875 -5.359375 C 16.082031 -5.378906 16.285156 -5.398438 16.484375 -5.421875 L 13.421875 -9.03125 C 13.148438 -9.363281 13.171875 -9.671875 13.484375 -9.953125 L 16.46875 -12.421875 C 16.800781 -12.722656 17.109375 -12.703125 17.390625 -12.359375 L 20.96875 -8.09375 C 21.351562 -8.675781 21.648438 -9.332031 21.859375 -10.0625 C 22.078125 -10.800781 22.1875 -11.613281 22.1875 -12.5 C 22.1875 -13.96875 21.898438 -15.234375 21.328125 -16.296875 C 20.753906 -17.367188 19.945312 -18.195312 18.90625 -18.78125 C 17.863281 -19.363281 16.644531 -19.65625 15.25 -19.65625 C 13.875 -19.65625 12.671875 -19.363281 11.640625 -18.78125 C 10.609375 -18.195312 9.804688 -17.367188 9.234375 -16.296875 C 8.671875 -15.234375 8.390625 -13.96875 8.390625 -12.5 C 8.390625 -11.019531 8.671875 -9.742188 9.234375 -8.671875 C 9.804688 -7.609375 10.609375 -6.785156 11.640625 -6.203125 C 12.671875 -5.617188 13.875 -5.328125 15.25 -5.328125 Z M 15.25 -5.328125 "/></g></g></g><g fill="#000000" fill-opacity="1"><g transform="translate(71.130909, 338.506795)"><g><path d="M 13.515625 0.671875 C 12.328125 0.671875 11.175781 0.5625 10.0625 0.34375 C 8.945312 0.125 7.914062 -0.210938 6.96875 -0.671875 C 6.019531 -1.128906 5.191406 -1.71875 4.484375 -2.4375 C 3.773438 -3.15625 3.222656 -4.007812 2.828125 -5 C 2.429688 -5.988281 2.234375 -7.128906 2.234375 -8.421875 L 2.234375 -24.3125 C 2.234375 -24.757812 2.453125 -24.984375 2.890625 -24.984375 L 8.390625 -24.984375 C 8.835938 -24.984375 9.0625 -24.757812 9.0625 -24.3125 L 9.0625 -10.203125 C 9.0625 -8.484375 9.441406 -7.238281 10.203125 -6.46875 C 10.972656 -5.707031 12.078125 -5.328125 13.515625 -5.328125 C 14.992188 -5.328125 16.109375 -5.707031 16.859375 -6.46875 C 17.609375 -7.238281 17.984375 -8.484375 17.984375 -10.203125 L 17.984375 -24.3125 C 17.984375 -24.757812 18.207031 -24.984375 18.65625 -24.984375 L 24.15625 -24.984375 C 24.601562 -24.984375 24.828125 -24.757812 24.828125 -24.3125 L 24.828125 -8.421875 C 24.828125 -6.804688 24.523438 -5.421875 23.921875 -4.265625 C 23.328125 -3.117188 22.507812 -2.179688 21.46875 -1.453125 C 20.425781 -0.722656 19.222656 -0.1875 17.859375 0.15625 C 16.492188 0.5 15.046875 0.671875 13.515625 0.671875 Z M 13.515625 0.671875 "/></g></g></g><g fill="#000000" fill-opacity="1"><g transform="translate(124.8237, 338.506795)"><g><path d="M 13.765625 -24.984375 L 25.21875 -0.796875 C 25.320312 -0.554688 25.328125 -0.363281 25.234375 -0.21875 C 25.140625 -0.0703125 24.96875 0 24.71875 0 L 18.859375 0 C 18.484375 0 18.226562 -0.175781 18.09375 -0.53125 L 17.28125 -2.640625 L 8.4375 -2.640625 L 7.625 -0.53125 C 7.488281 -0.175781 7.234375 0 6.859375 0 L 1 0 C 0.757812 0 0.585938 -0.0703125 0.484375 -0.21875 C 0.390625 -0.363281 0.394531 -0.554688 0.5 -0.796875 L 11.953125 -24.984375 C 12.203125 -25.492188 12.503906 -25.75 12.859375 -25.75 C 13.210938 -25.75 13.515625 -25.492188 13.765625 -24.984375 Z M 12.859375 -13.90625 L 10.390625 -7.625 L 15.328125 -7.625 Z M 12.859375 -13.90625 "/></g></g></g><g fill="#000000" fill-opacity="1"><g transform="translate(177.215527, 338.506795)"><g><path d="M 8.265625 0 L 3.171875 0 C 2.722656 0 2.5 -0.222656 2.5 -0.671875 L 2.5 -24.421875 C 2.5 -24.992188 2.65625 -25.359375 2.96875 -25.515625 C 3.28125 -25.679688 3.664062 -25.554688 4.125 -25.140625 L 18.125 -12.8125 L 18.125 -24.3125 C 18.125 -24.757812 18.34375 -24.984375 18.78125 -24.984375 L 23.875 -24.984375 C 24.320312 -24.984375 24.546875 -24.757812 24.546875 -24.3125 L 24.546875 -0.609375 C 24.546875 -0.0351562 24.375 0.328125 24.03125 0.484375 C 23.695312 0.640625 23.269531 0.476562 22.75 0 L 8.9375 -12.59375 L 8.9375 -0.671875 C 8.9375 -0.222656 8.710938 0 8.265625 0 Z M 8.265625 0 "/></g></g></g><g fill="#000000" fill-opacity="1"><g transform="translate(230.908307, 338.506795)"><g><path d="M 12.390625 0 L 7.03125 0 C 6.582031 0 6.359375 -0.222656 6.359375 -0.671875 L 6.359375 -19.328125 L 1.328125 -19.328125 C 0.890625 -19.328125 0.671875 -19.546875 0.671875 -19.984375 L 0.671875 -24.3125 C 0.671875 -24.757812 0.890625 -24.984375 1.328125 -24.984375 L 18.09375 -24.984375 C 18.53125 -24.984375 18.75 -24.757812 18.75 -24.3125 L 18.75 -19.984375 C 18.75 -19.546875 18.53125 -19.328125 18.09375 -19.328125 L 13.0625 -19.328125 L 13.0625 -0.671875 C 13.0625 -0.222656 12.835938 0 12.390625 0 Z M 12.390625 0 "/></g></g></g><g fill="#000000" fill-opacity="1"><g transform="translate(277.006731, 338.506795)"><g><path d="M 13.515625 0.671875 C 12.328125 0.671875 11.175781 0.5625 10.0625 0.34375 C 8.945312 0.125 7.914062 -0.210938 6.96875 -0.671875 C 6.019531 -1.128906 5.191406 -1.71875 4.484375 -2.4375 C 3.773438 -3.15625 3.222656 -4.007812 2.828125 -5 C 2.429688 -5.988281 2.234375 -7.128906 2.234375 -8.421875 L 2.234375 -24.3125 C 2.234375 -24.757812 2.453125 -24.984375 2.890625 -24.984375 L 8.390625 -24.984375 C 8.835938 -24.984375 9.0625 -24.757812 9.0625 -24.3125 L 9.0625 -10.203125 C 9.0625 -8.484375 9.441406 -7.238281 10.203125 -6.46875 C 10.972656 -5.707031 12.078125 -5.328125 13.515625 -5.328125 C 14.992188 -5.328125 16.109375 -5.707031 16.859375 -6.46875 C 17.609375 -7.238281 17.984375 -8.484375 17.984375 -10.203125 L 17.984375 -24.3125 C 17.984375 -24.757812 18.207031 -24.984375 18.65625 -24.984375 L 24.15625 -24.984375 C 24.601562 -24.984375 24.828125 -24.757812 24.828125 -24.3125 L 24.828125 -8.421875 C 24.828125 -6.804688 24.523438 -5.421875 23.921875 -4.265625 C 23.328125 -3.117188 22.507812 -2.179688 21.46875 -1.453125 C 20.425781 -0.722656 19.222656 -0.1875 17.859375 0.15625 C 16.492188 0.5 15.046875 0.671875 13.515625 0.671875 Z M 13.515625 0.671875 "/></g></g></g><g fill="#000000" fill-opacity="1"><g transform="translate(330.699522, 338.506795)"><g><path d="M 8.328125 0 L 3.171875 0 C 2.722656 0 2.5 -0.222656 2.5 -0.671875 L 2.5 -24.421875 C 2.5 -24.828125 2.582031 -25.128906 2.75 -25.328125 C 2.914062 -25.535156 3.117188 -25.613281 3.359375 -25.5625 C 3.609375 -25.507812 3.863281 -25.316406 4.125 -24.984375 L 15.09375 -11.1875 L 26.125 -24.984375 C 26.382812 -25.304688 26.640625 -25.492188 26.890625 -25.546875 C 27.140625 -25.597656 27.34375 -25.523438 27.5 -25.328125 C 27.664062 -25.128906 27.75 -24.828125 27.75 -24.421875 L 27.75 -0.671875 C 27.75 -0.222656 27.523438 0 27.078125 0 L 21.921875 0 C 21.484375 0 21.265625 -0.222656 21.265625 -0.671875 L 21.265625 -9.6875 L 15.546875 -3.0625 C 15.242188 -2.6875 14.9375 -2.6875 14.625 -3.0625 L 9 -9.625 L 9 -0.671875 C 9 -0.222656 8.773438 0 8.328125 0 Z M 8.328125 0 "/></g></g></g><g fill="#000000" fill-opacity="1"><g transform="translate(106.453511, 367.348277)"><g><path d="M 7.65625 0.296875 C 6.445312 0.296875 5.394531 0.09375 4.5 -0.3125 C 3.601562 -0.71875 2.90625 -1.296875 2.40625 -2.046875 C 1.90625 -2.804688 1.628906 -3.695312 1.578125 -4.71875 L 2.9375 -4.71875 C 3.019531 -3.550781 3.484375 -2.640625 4.328125 -1.984375 C 5.171875 -1.335938 6.28125 -1.015625 7.65625 -1.015625 C 8.957031 -1.015625 9.984375 -1.28125 10.734375 -1.8125 C 11.492188 -2.351562 11.875 -3.085938 11.875 -4.015625 C 11.875 -4.835938 11.523438 -5.507812 10.828125 -6.03125 C 10.128906 -6.550781 8.984375 -6.988281 7.390625 -7.34375 C 5.441406 -7.789062 4.023438 -8.367188 3.140625 -9.078125 C 2.265625 -9.796875 1.828125 -10.75 1.828125 -11.9375 C 1.828125 -13.207031 2.3125 -14.226562 3.28125 -15 C 4.25 -15.769531 5.578125 -16.15625 7.265625 -16.15625 C 9.023438 -16.15625 10.40625 -15.726562 11.40625 -14.875 C 12.40625 -14.03125 12.9375 -12.847656 13 -11.328125 L 11.640625 -11.328125 C 11.578125 -12.441406 11.164062 -13.304688 10.40625 -13.921875 C 9.644531 -14.535156 8.597656 -14.84375 7.265625 -14.84375 C 5.984375 -14.84375 4.988281 -14.578125 4.28125 -14.046875 C 3.570312 -13.515625 3.21875 -12.8125 3.21875 -11.9375 C 3.21875 -11.15625 3.550781 -10.503906 4.21875 -9.984375 C 4.894531 -9.460938 6.0625 -9.007812 7.71875 -8.625 C 9.726562 -8.15625 11.15625 -7.554688 12 -6.828125 C 12.851562 -6.097656 13.28125 -5.164062 13.28125 -4.03125 C 13.28125 -2.695312 12.769531 -1.640625 11.75 -0.859375 C 10.738281 -0.0859375 9.375 0.296875 7.65625 0.296875 Z M 7.65625 0.296875 "/></g></g></g><g fill="#000000" fill-opacity="1"><g transform="translate(130.390639, 367.348277)"><g><path d="M 6.5 0 L 6.5 -5.828125 L 0.5 -15.859375 L 2.078125 -15.859375 L 7.203125 -7.296875 L 12.296875 -15.859375 L 13.859375 -15.859375 L 7.859375 -5.875 L 7.859375 0 Z M 6.5 0 "/></g></g></g><g fill="#000000" fill-opacity="1"><g transform="translate(153.807037, 367.348277)"><g><path d="M 7.65625 0.296875 C 6.445312 0.296875 5.394531 0.09375 4.5 -0.3125 C 3.601562 -0.71875 2.90625 -1.296875 2.40625 -2.046875 C 1.90625 -2.804688 1.628906 -3.695312 1.578125 -4.71875 L 2.9375 -4.71875 C 3.019531 -3.550781 3.484375 -2.640625 4.328125 -1.984375 C 5.171875 -1.335938 6.28125 -1.015625 7.65625 -1.015625 C 8.957031 -1.015625 9.984375 -1.28125 10.734375 -1.8125 C 11.492188 -2.351562 11.875 -3.085938 11.875 -4.015625 C 11.875 -4.835938 11.523438 -5.507812 10.828125 -6.03125 C 10.128906 -6.550781 8.984375 -6.988281 7.390625 -7.34375 C 5.441406 -7.789062 4.023438 -8.367188 3.140625 -9.078125 C 2.265625 -9.796875 1.828125 -10.75 1.828125 -11.9375 C 1.828125 -13.207031 2.3125 -14.226562 3.28125 -15 C 4.25 -15.769531 5.578125 -16.15625 7.265625 -16.15625 C 9.023438 -16.15625 10.40625 -15.726562 11.40625 -14.875 C 12.40625 -14.03125 12.9375 -12.847656 13 -11.328125 L 11.640625 -11.328125 C 11.578125 -12.441406 11.164062 -13.304688 10.40625 -13.921875 C 9.644531 -14.535156 8.597656 -14.84375 7.265625 -14.84375 C 5.984375 -14.84375 4.988281 -14.578125 4.28125 -14.046875 C 3.570312 -13.515625 3.21875 -12.8125 3.21875 -11.9375 C 3.21875 -11.15625 3.550781 -10.503906 4.21875 -9.984375 C 4.894531 -9.460938 6.0625 -9.007812 7.71875 -8.625 C 9.726562 -8.15625 11.15625 -7.554688 12 -6.828125 C 12.851562 -6.097656 13.28125 -5.164062 13.28125 -4.03125 C 13.28125 -2.695312 12.769531 -1.640625 11.75 -0.859375 C 10.738281 -0.0859375 9.375 0.296875 7.65625 0.296875 Z M 7.65625 0.296875 "/></g></g></g><g fill="#000000" fill-opacity="1"><g transform="translate(177.744168, 367.348277)"><g><path d="M 6.328125 0 L 6.328125 -14.546875 L 0.859375 -14.546875 L 0.859375 -15.859375 L 13.15625 -15.859375 L 13.15625 -14.546875 L 7.6875 -14.546875 L 7.6875 0 Z M 6.328125 0 "/></g></g></g><g fill="#000000" fill-opacity="1"><g transform="translate(200.820948, 367.348277)"><g><path d="M 2.5625 0 L 2.5625 -15.859375 L 11.890625 -15.859375 L 11.890625 -14.5625 L 3.9375 -14.5625 L 3.9375 -8.71875 L 11.3125 -8.71875 L 11.3125 -7.453125 L 3.9375 -7.453125 L 3.9375 -1.296875 L 12.140625 -1.296875 L 12.140625 0 Z M 2.5625 0 "/></g></g></g><g fill="#000000" fill-opacity="1"><g transform="translate(223.671319, 367.348277)"><g><path d="M 2.5625 0 L 2.5625 -15.859375 L 3.84375 -15.859375 L 10.4375 -5.9375 L 17.03125 -15.859375 L 18.3125 -15.859375 L 18.3125 0 L 16.953125 0 L 16.953125 -13.328125 L 11.015625 -4.421875 L 9.875 -4.421875 L 3.9375 -13.328125 L 3.9375 0 Z M 2.5625 0 "/></g></g></g><g fill="#000000" fill-opacity="1"><g transform="translate(253.585589, 367.348277)"><g><path d="M 7.65625 0.296875 C 6.445312 0.296875 5.394531 0.09375 4.5 -0.3125 C 3.601562 -0.71875 2.90625 -1.296875 2.40625 -2.046875 C 1.90625 -2.804688 1.628906 -3.695312 1.578125 -4.71875 L 2.9375 -4.71875 C 3.019531 -3.550781 3.484375 -2.640625 4.328125 -1.984375 C 5.171875 -1.335938 6.28125 -1.015625 7.65625 -1.015625 C 8.957031 -1.015625 9.984375 -1.28125 10.734375 -1.8125 C 11.492188 -2.351562 11.875 -3.085938 11.875 -4.015625 C 11.875 -4.835938 11.523438 -5.507812 10.828125 -6.03125 C 10.128906 -6.550781 8.984375 -6.988281 7.390625 -7.34375 C 5.441406 -7.789062 4.023438 -8.367188 3.140625 -9.078125 C 2.265625 -9.796875 1.828125 -10.75 1.828125 -11.9375 C 1.828125 -13.207031 2.3125 -14.226562 3.28125 -15 C 4.25 -15.769531 5.578125 -16.15625 7.265625 -16.15625 C 9.023438 -16.15625 10.40625 -15.726562 11.40625 -14.875 C 12.40625 -14.03125 12.9375 -12.847656 13 -11.328125 L 11.640625 -11.328125 C 11.578125 -12.441406 11.164062 -13.304688 10.40625 -13.921875 C 9.644531 -14.535156 8.597656 -14.84375 7.265625 -14.84375 C 5.984375 -14.84375 4.988281 -14.578125 4.28125 -14.046875 C 3.570312 -13.515625 3.21875 -12.8125 3.21875 -11.9375 C 3.21875 -11.15625 3.550781 -10.503906 4.21875 -9.984375 C 4.894531 -9.460938 6.0625 -9.007812 7.71875 -8.625 C 9.726562 -8.15625 11.15625 -7.554688 12 -6.828125 C 12.851562 -6.097656 13.28125 -5.164062 13.28125 -4.03125 C 13.28125 -2.695312 12.769531 -1.640625 11.75 -0.859375 C 10.738281 -0.0859375 9.375 0.296875 7.65625 0.296875 Z M 7.65625 0.296875 "/></g></g></g></svg>